<?xml version="1.0" standalone="no"?>
<!DOCTYPE svg PUBLIC "-//W3C//DTD SVG 1.1//EN" "http://www.w3.org/Graphics/SVG/1.1/DTD/svg11.dtd" >
<svg xmlns="http://www.w3.org/2000/svg">
<metadata>
<json>
<![CDATA[
{
	"fontFamily": "icomoon",
	"majorVersion": 1,
	"minorVersion": 0,
	"version": "Version 1.0",
	"fontId": "icomoon",
	"psName": "icomoon",
	"subFamily": "Regular",
	"fullName": "icomoon",
	"description": "Font generated by IcoMoon."
}
]]>
</json>
</metadata>
<defs>
<font id="icomoon" horiz-adv-x="1024">
<font-face units-per-em="1024" ascent="960" descent="-64" />
<missing-glyph horiz-adv-x="1024" />
<glyph unicode="&#x20;" horiz-adv-x="512" d="" />
<glyph unicode="&#xe90;" glyph-name="heart2" data-tags="heart2" d="M512 9.143q-14.857 0-25.143 10.286l-356.571 344q-5.714 4.571-15.714 14.857t-31.714 37.429-38.857 55.714-30.571 69.143-13.429 78.857q0 125.714 72.571 196.571t200.571 70.857q35.429 0 72.286-12.286t68.571-33.143 54.571-39.143 43.429-38.857q20.571 20.571 43.429 38.857t54.571 39.143 68.571 33.143 72.286 12.286q128 0 200.571-70.857t72.571-196.571q0-126.286-130.857-257.143l-356-342.857q-10.286-10.286-25.143-10.286z" />
<glyph unicode="&#xe900;" glyph-name="heart" data-tags="heart" d="M940.259 834.32c-52.965 56.93-127.184 89.323-204.942 89.443-77.821-0.090-152.116-32.465-205.163-89.407l-18.079-19.104-18.079 19.104c-105.26 113.288-282.43 119.794-395.716 14.534-5.020-4.666-9.868-9.512-14.534-14.534-111.661-120.44-111.661-306.573 0-427.013l401.761-423.683c13.9-14.674 37.063-15.302 51.737-1.402 0.48 0.455 0.948 0.922 1.402 1.402l401.615 423.683c111.652 120.427 111.652 306.55-0.002 426.977zM887.304 457.737h-0.036l-375.193-395.723-375.227 395.723c-85.302 92.027-85.302 234.234 0 326.261 77.465 83.96 208.328 89.224 292.288 11.76 4.076-3.761 7.998-7.683 11.76-11.76l44.611-47.064c14.702-14.607 38.437-14.607 53.139 0l44.611 47.028c77.465 83.96 208.328 89.224 292.288 11.76 4.076-3.761 7.998-7.683 11.76-11.76 86.044-92.173 86.675-234.639 0-326.224z" />
<glyph unicode="&#xe901;" glyph-name="large-paper-bag" data-tags="large-paper-bag" d="M715.138 783.247c0.796 4.494 1.393 9.105 1.393 13.831v82.755c0 44.213-35.971 80.167-80.184 80.167h-248.695c-44.213 0-80.184-35.954-80.184-80.167v-82.755c0-4.726 0.597-9.337 1.393-13.831h-248.778v-767.046c0-44.213 35.971-80.201 80.184-80.201h743.464c44.213 0 80.184 35.987 80.184 80.201v767.046h-248.778zM373.805 797.078v82.755c0 7.612 6.219 13.831 13.848 13.831h248.695c7.629 0 13.848-6.219 13.848-13.831v-82.755c0-7.612-6.219-13.831-13.848-13.831h-248.695c-7.629 0-13.848 6.219-13.848 13.831zM897.58 16.201c0-7.645-6.219-13.864-13.848-13.864h-743.464c-7.629 0-13.848 6.219-13.848 13.864v700.71h771.159v-700.71z" />
<glyph unicode="&#xe902;" glyph-name="quote" data-tags="quote" d="M585.142 886.858v-438.858h292.571c0-161.321-131.251-292.571-292.571-292.571v-146.287c242.001 0 438.858 196.857 438.858 438.858v438.858zM0 448h292.571c0-161.321-131.251-292.571-292.571-292.571v-146.287c242.001 0 438.858 196.857 438.858 438.858v438.858h-438.858z" />
<glyph unicode="&#xe903;" glyph-name="arrow-down" data-tags="arrow-down" d="M854.838 307.353c-12.61 12.482-33.091 12.514-45.7 0l-264.829-262.204v882.848c0 17.667-14.466 32.003-32.325 32.003s-32.325-14.339-32.325-32.003v-882.848l-264.829 262.172c-12.61 12.514-33.091 12.514-45.7 0s-12.61-32.771 0-45.253l320.003-316.802c12.482-12.354 33.25-12.354 45.732 0l320.003 316.802c12.612 12.514 12.612 32.771-0.029 45.285-12.61 12.482 12.641-12.514 0 0z" />
<glyph unicode="&#xe904;" glyph-name="star" data-tags="star" d="M512 223.147l263.68-159.147-69.76 299.947 232.747 201.6-306.773 26.453-119.893 282.667-119.893-282.667-306.773-26.453 232.747-201.6-69.76-299.947z" />
<glyph unicode="&#xe905;" glyph-name="plus" data-tags="plus" d="M896 512h-320v320h-128v-320h-320v-128h320v-320h128v320h320z" />
<glyph unicode="&#xe906;" glyph-name="envelope" data-tags="envelope" d="M938.666 832h-853.332c-47.064 0-85.334-38.27-85.334-85.334v-597.334c0-47.062 38.27-85.332 85.334-85.332h853.334c47.062 0 85.332 38.27 85.332 85.334v597.332c0 47.064-38.27 85.334-85.334 85.334zM85.334 789.334h853.334c2.336 0 4.354-0.972 6.588-1.334l-410.59-333.354c-13.876-8.77-33.708-7.354-43.812-1.126l-412.124 334.474c2.238 0.366 4.262 1.34 6.604 1.34zM981.334 149.334c0-23.52-19.146-42.666-42.666-42.666h-853.334c-23.52 0-42.666 19.146-42.666 42.666v597.332c0 4.77 1.274 9.17 2.724 13.456l420.442-341.080c13.854-8.958 29.834-13.708 46.166-13.708 15.75 0 31.126 4.396 44.626 12.75 1.25 0.646 2.438 1.416 3.52 2.312l418.46 339.736c1.454-4.29 2.726-8.692 2.726-13.466v-597.332z" />
<glyph unicode="&#xe907;" glyph-name="pin" data-tags="pin" d="M512 960c-208.583 0-378.27-169.688-378.27-378.27 0-68.667 30.796-142.519 32.086-145.634 9.946-23.609 29.572-60.278 43.724-81.773l259.36-392.978c10.614-16.11 26.323-25.344 43.101-25.344s32.487 9.234 43.101 25.322l259.382 393.001c14.174 21.495 33.777 58.165 43.724 81.773 1.291 3.093 32.064 76.945 32.064 145.634 0 208.583-169.688 378.27-378.27 378.27zM817.175 453.363c-8.878-21.161-27.146-55.272-39.852-74.542l-259.382-393.001c-5.118-7.766-6.742-7.766-11.86 0l-259.382 393.001c-12.705 19.27-30.974 53.403-39.852 74.564-0.378 0.912-28.615 68.89-28.615 128.345 0 184.040 149.728 333.768 333.768 333.768s333.768-149.728 333.768-333.768c0-59.544-28.304-127.7-28.593-128.367zM512 781.968c-110.433 0-200.261-89.85-200.261-200.261s89.828-200.261 200.261-200.261c110.433 0 200.261 89.85 200.261 200.261s-89.828 200.261-200.261 200.261zM512 425.949c-85.867 0-155.758 69.869-155.758 155.758s69.891 155.758 155.758 155.758 155.758-69.869 155.758-155.758-69.891-155.758-155.758-155.758z" />
<glyph unicode="&#xe908;" glyph-name="email2" data-tags="email2" d="M958.080 746.24c-0.849 2.213-1.817 4.11-2.957 5.888l0.077-0.128c-0.534 1.402-1.072 2.561-1.679 3.678l0.079-0.158c-2.905 2.884-6.159 5.425-9.689 7.551l-0.231 0.129-5.44 1.92h-844.16c-1.008 0.113-2.176 0.177-3.36 0.177s-2.352-0.064-3.502-0.189l0.142 0.013-5.44-1.92c-1.826-1-3.396-2.060-4.86-3.247l0.060 0.047c-1.791-1.273-3.361-2.64-4.786-4.145l-0.014-0.015c-0.53-0.96-1.068-2.12-1.531-3.317l-0.069-0.203c-3.284-3.331-5.651-7.573-6.689-12.313l-0.031-0.167c-0.039-0.574-0.062-1.244-0.062-1.92s0.023-1.346 0.067-2.010l-0.005 0.090v-576c0-17.673 14.327-32 32-32v0h832c17.673 0 32 14.327 32 32v0 576c0.039 0.574 0.062 1.244 0.062 1.92s-0.023 1.346-0.067 2.010l0.005-0.090c-0.466 2.429-1.13 4.573-1.999 6.609l0.079-0.209zM833.92 704l-321.92-247.68-321.92 247.68zM896 192h-768v480l364.48-280.32c5.341-4.144 12.139-6.643 19.52-6.643s14.179 2.499 19.593 6.698l-0.073-0.054 364.48 280.32z" />
<glyph unicode="&#xe909;" glyph-name="email-1" data-tags="email (1)" d="M1014.24 805.44c-0.16 0.16-0.16 0.48-0.32 0.64s-0.48 0.32-0.64 0.48c-6.24 6.080-14.72 9.76-24.16 9.76h-954.080c-9.28 0-17.76-3.68-24-9.76-0.32-0.32-0.64-0.32-0.8-0.64-0.16-0.16-0.32-0.48-0.48-0.64-6.080-6.24-9.76-14.72-9.76-24.16v-666.24c0-10.24 4.48-19.52 11.68-25.92 0 0 0.16-0.16 0.16-0.16 0.16-0.16 0.48-0.32 0.64-0.48 6.080-5.28 13.92-8.48 22.56-8.48h953.92c8.64 0 16.48 3.36 22.72 8.48 0.16 0.16 0.32 0.16 0.64 0.32 0 0 0 0.16 0.16 0.16 7.040 6.4 11.68 15.52 11.68 25.92v666.4c-0.16 9.44-4 17.92-9.92 24.32zM970.4 785.12l-455.52-447.52c-1.6-1.6-4.16-1.6-5.76 0l-455.52 447.52h916.8zM31.040 129.92v633.76l319.68-314.080-319.68-319.68zM55.84 110.88l317.12 317.12 114.56-112.48c6.72-6.56 15.68-9.92 24.48-9.92 8.96 0 17.76 3.36 24.64 9.92l114.56 112.48 317.12-317.12h-912.48zM992.96 129.92l-319.68 319.68 319.68 314.080v-633.76z" />
<glyph unicode="&#xe90a;" glyph-name="right-arrow" data-tags="right-arrow" d="M743.156 728.843l-45.612-45.614 202.973-202.975h-900.517v-64.509h900.517l-202.973-202.973 45.612-45.614 280.844 280.844z" />
<glyph unicode="&#xe90b;" glyph-name="delivery-truck" data-tags="delivery-truck" d="M1018.946 447.212l-118.782 135.602c-3.874 4.42-9.466 6.958-15.344 6.958h-98.91v83.744c0 11.266-9.134 20.398-20.398 20.398h-421.294c-11.264 0-20.398-9.132-20.398-20.398v-27.524h-196.184c-11.264 0-20.398-9.132-20.398-20.398s9.134-20.398 20.398-20.398h196.184v-264.42h-118.092c-11.264 0-20.398-9.132-20.398-20.398s9.134-20.398 20.398-20.398h118.092v-20.73c0-11.266 9.134-20.398 20.398-20.398h42.576c8.97-32.678 38.918-56.764 74.406-56.764s65.436 24.086 74.408 56.764l272.178 0.002c8.97-32.678 38.918-56.764 74.406-56.764s65.436 24.086 74.408 56.764h47.004c11.264 0 20.398 9.132 20.398 20.398v154.522c-0.002 4.942-1.8 9.72-5.056 13.438zM461.2 242.884c-20.052 0-36.364 16.314-36.364 36.366s16.312 36.366 36.364 36.366 36.366-16.314 36.366-36.366-16.314-36.366-36.366-36.366zM535.604 299.648c-8.97 32.678-38.92 56.764-74.408 56.764s-65.434-24.086-74.406-56.764h-22.178v353.472h380.494v-353.472h-209.502zM882.188 242.884c-20.052 0-36.364 16.314-36.364 36.366s16.312 36.366 36.364 36.366c20.052 0 36.366-16.314 36.366-36.366s-16.312-36.366-36.366-36.366zM983.204 299.648h-26.608c-8.97 32.678-38.92 56.764-74.408 56.764s-65.434-24.086-74.406-56.764h-21.878v249.328h89.662l107.636-122.874v-126.454zM138.522 340.778h-10.884c-11.264 0-20.398-9.132-20.398-20.398s9.134-20.398 20.398-20.398h10.884c11.264 0 20.398 9.132 20.398 20.398s-9.132 20.398-20.398 20.398zM239 495.448h-218.602c-11.264 0-20.398-9.132-20.398-20.398s9.134-20.398 20.398-20.398h218.602c11.264 0 20.398 9.132 20.398 20.398s-9.134 20.398-20.398 20.398z" />
<glyph unicode="&#xe90c;" glyph-name="search" data-tags="search" d="M422.069 116.646c-232.514 0-421.677 189.163-421.677 421.677s189.163 421.677 421.677 421.677 421.677-189.163 421.677-421.677-189.163-421.677-421.677-421.677zM422.069 880.061c-188.436 0-341.738-153.303-341.738-341.738s153.303-341.738 341.738-341.738 341.738 153.303 341.738 341.738-153.303 341.738-341.738 341.738zM1011.903-52.293c15.608 15.61 15.608 40.919 0 56.527l-178.863 178.863c-15.61 15.61-40.919 15.61-56.527 0s-15.608-40.919 0-56.527l178.863-178.863c7.804-7.804 18.034-11.705 28.264-11.705s20.456 3.901 28.262 11.705z" />
<glyph unicode="&#xe90d;" glyph-name="user" data-tags="user" d="M512 383.222c-307.674 0-477.12-145.552-477.12-409.85 0-20.642 16.73-37.372 37.372-37.372h879.494c20.642 0 37.372 16.73 37.372 37.372 0.002 264.284-169.444 409.85-477.118 409.85zM110.984 10.744c14.7 197.612 149.426 297.732 401.016 297.732s386.318-100.12 401.030-297.732h-802.046zM512 960c-141.33 0-247.902-108.716-247.902-252.874 0-148.38 111.208-269.080 247.902-269.080s247.902 120.7 247.902 269.068c0 144.17-106.572 252.886-247.902 252.886zM512 512.778c-95.486 0-173.158 87.178-173.158 194.336 0 103.222 72.826 178.142 173.158 178.142 98.726 0 173.158-76.576 173.158-178.142 0-107.158-77.672-194.336-173.158-194.336z" />
<glyph unicode="&#xe90e;" glyph-name="box" data-tags="box" d="M512.016 32c-5.536 0-11.040 1.424-16 4.288l-332.56 192c-9.904 5.712-16 16.288-16 27.712v384c0 11.424 6.096 22 16 27.712l332.56 192c9.904 5.712 22.096 5.712 32 0l332.528-192c9.904-5.712 16-16.288 16-27.712v-384c0-11.424-6.096-22-16-27.712l-332.528-192c-4.96-2.864-10.464-4.288-16-4.288zM211.456 274.48l300.56-173.52 300.528 173.52v347.040l-300.528 173.52-300.56-173.52zM512.016 32c-17.664 0-32 14.336-32 32v384c0 17.664 14.336 32 32 32s32-14.336 32-32v-384c0-17.664-14.336-32-32-32zM511.984 416c-5.424 0-10.928 1.376-15.968 4.304l-332.56 192c-15.312 8.816-20.544 28.384-11.728 43.696 8.848 15.312 28.352 20.576 43.712 11.712l332.56-192c15.312-8.832 20.544-28.4 11.712-43.712-5.92-10.272-16.672-16-27.728-16zM512.048 416c-11.056 0-21.808 5.744-27.744 16-8.832 15.312-3.6 34.88 11.712 43.712l332.528 192c15.296 8.864 34.864 3.6 43.712-11.712 8.832-15.312 3.6-34.88-11.712-43.712l-332.528-192c-5.024-2.912-10.544-4.288-15.968-4.288z" />
<glyph unicode="&#xe90f;" glyph-name="compare" data-tags="compare" d="M938.667 917.333h-341.333v-85.333h238.336l-780.501-780.501 60.331-60.331 780.501 780.501v-238.336h85.333v341.333c0 23.564-19.103 42.667-42.667 42.667v0zM896 124.331l-268.501 268.501-60.331-60.331 268.501-268.501h-238.336v-85.333h341.333c23.564 0 42.667 19.103 42.667 42.667v0 341.333h-85.333zM55.125 844.48l60.331 60.331 341.275-341.275-60.331-60.331z" />
<glyph unicode="&#xe910;" glyph-name="bed-bath" data-tags="bed-bath" d="M928.002 471.88v171.882c0 103.795-84.443 188.236-188.236 188.236h-455.529c-103.795 0-188.236-84.443-188.236-188.236v-171.882c-55.846-19.657-96-72.91-96-135.393v-32.969c0-56.337 32.645-105.174 80-128.649v-110.865h32.001v99.524c10.148-2.284 20.685-3.53 31.515-3.53h736.967c10.829 0 21.366 1.246 31.515 3.53v-99.528h32.001v110.865c47.355 23.475 80 72.312 80 128.649v32.969c0 62.488-40.152 115.741-95.998 135.397zM128.002 643.762c0 86.151 70.086 156.239 156.235 156.239h455.527c86.151 0 156.237-70.088 156.237-156.237v-127.122c-16.919 19.101-39.278 32.85-64.001 39.297v47.915c0 37.575-30.57 68.145-68.145 68.145h-151.709c-37.577 0-68.145-30.57-68.145-68.145v-43.798h-63.999v43.798c0 37.575-30.57 68.145-68.147 68.145h-151.709c-37.575 0-68.145-30.57-68.145-68.145v-47.918c-24.72-6.447-47.079-20.196-64.001-39.297v127.122zM800 528.057c34.329 0 66.201-18.662 83.217-48.124-0.913 0.017-1.816 0.069-2.733 0.069h-736.969c-0.915 0-1.82-0.052-2.733-0.069 17.017 29.46 48.893 48.124 83.221 48.124h575.999zM224.002 560.056v43.798c0 19.931 16.215 36.146 36.146 36.146h151.709c19.931 0 36.146-16.215 36.146-36.146v-43.798h-224zM800 560.056h-224v43.798c0 19.931 16.215 36.146 36.146 36.146h151.709c19.931 0 36.146-16.215 36.146-36.146v-43.798zM880.486 192.001h-736.971c-61.489 0-111.515 50.026-111.515 111.515v32.969c0 61.491 50.026 111.515 111.515 111.515h736.969c61.491 0 111.515-50.026 111.515-111.515v-32.969h0.002c0-61.489-50.026-111.515-111.515-111.515zM112 272.002h800v-32.001h-800v32.001z" />
<glyph unicode="&#xe911;" glyph-name="furniture" data-tags="furniture" d="M176 631.18h32.001v-30.357h-32.001v30.357zM799.999 631.18h32.001v-30.357h-32.001v30.357zM623.999 631.18h32.001v-30.357h-32.001v30.357zM368 631.18h32.001v-30.357h-32.001v30.357zM975.629 350.534c28.424 12.284 48.369 40.586 48.369 73.468 0 32.737-19.776 60.929-48.001 73.3v191.085c0 57.131-46.48 103.613-103.613 103.613h-272.771c-36.846 0-69.24-19.348-87.613-48.402-18.374 29.053-50.768 48.402-87.613 48.402h-272.773c-57.131 0-103.613-46.482-103.613-103.613v-191.087c-28.223-12.37-47.999-40.561-47.999-73.298 0-32.881 19.945-61.181 48.369-73.468-28.664-14.524-48.369-44.262-48.369-78.533 0-48.523 39.477-88 88-88h8v-80h32.001v80h767.997v-80h32.001v80h8c48.523 0 88 39.477 88 88-0.002 34.271-19.707 64.009-48.371 78.533zM991.999 424.002c0-26.468-21.533-47.999-48.001-47.999-26.465 0-47.999 21.533-47.999 47.999s21.533 47.999 47.999 47.999c26.468 0 48.001-21.533 48.001-47.999zM896.053 360.001h-6.817c0.669 1.331 1.281 2.69 1.843 4.077 1.605-1.419 3.258-2.788 4.974-4.077zM528.003 415.613v272.773c-0.004 39.489 32.12 71.614 71.61 71.614h272.771c39.489 0 71.614-32.125 71.614-71.614v-184.387c-23.092 0-43.918-9.847-58.534-25.548-10.14 14.913-27.243 24.727-46.595 24.727h-141.738c-31.048 0-56.31-25.26-56.31-56.308v-61.739c0-9.028 2.148-17.561 5.941-25.13h-118.76v55.612zM864.819 412.643v-27.51c0-12.113-8.351-22.284-19.59-25.13h-154.46c-11.239 2.846-19.59 13.017-19.59 25.128v61.739c0 14.309 11.64 25.951 25.951 25.951h141.738c14.311 0 25.951-11.642 25.951-25.951v-11.511c-0.531-3.714-0.821-7.502-0.821-11.358 0-3.858 0.29-7.647 0.821-11.358zM80 688.386c0 39.489 32.125 71.614 71.612 71.614h272.773c39.487 0 71.614-32.125 71.614-71.614v-328.386h-368.054c19.45 14.608 32.056 37.859 32.056 64.001 0 44.112-35.888 80-80 80v184.385zM32.001 424.002c0 26.465 21.533 47.999 48.001 47.999 26.465 0 47.999-21.533 47.999-47.999 0-26.468-21.533-47.999-47.999-47.999-26.47-0.002-48.001 21.531-48.001 47.999zM935.998 216.002h-847.998c-30.879 0-56.001 25.122-56.001 55.999s25.122 55.999 56.001 55.999h847.996c30.879 0 56.001-25.122 56.001-55.999 0.002-30.877-25.12-55.999-55.999-55.999z" />
<glyph unicode="&#xe912;" glyph-name="home-decor" data-tags="home-decor" d="M639.999 463.998v496.002h-255.998v-496.002h48v-79.996h32v79.996h32v-431.995h-112.001v-96.003h255.998v96.003h-111.999v431.995h111.999zM607.999 0.003v-32h-191.999v32h191.999zM415.999 496v431.997h191.999v-431.997h-191.999zM431.999 368.001h32v-32h-32v32z" />
<glyph unicode="&#xe913;" glyph-name="lighting" data-tags="lighting" d="M32 655.999h-32v-31.998h32v-32.002h32v96.002h-32zM800.005 624.001h32v31.998h-32v32.002h-32v-96.002h32zM528.003 143.995h31.998v-48h-31.998v48zM956.381 287.997h-120.753c-37.288 0-67.623-30.335-67.623-67.623v-88.753c0-37.288 30.337-67.623 67.623-67.623h31.206c-16.772-28.679-47.88-48-83.434-48h-145.307c1.776 5.007 2.752 10.391 2.752 16 0 26.469-21.533 48-48 48h-160.844v480.001h320.001v135.133c0 119.582-97.287 216.869-216.869 216.869h-238.266c-119.582 0-216.869-97.287-216.869-216.869v-135.133h320.001v-480.001h-160.002c-26.466 0-48-21.531-48-48 0-26.466 21.533-47.998 48-47.998h543.399c53.718 0 99.825 33.119 119.036 80h53.943c37.288 0 67.623 30.335 67.623 67.623v88.753c0.004 37.286-30.331 67.621-67.619 67.621zM112.002 591.997v103.135c0 101.936 82.932 184.869 184.867 184.869h238.266c101.936 0 184.869-82.932 184.869-184.869v-103.135h-608.001zM592.847 15.996h-352.845c-8.823 0-16 7.177-16 16s7.177 16.002 16 16.002h352.845c8.823 0 16.002-7.179 16.002-16.002s-7.179-16-16.002-16zM896.004 143.995c-17.646 0-32 14.356-32 32.002s14.356 32 32 32c17.646 0 32.002-14.356 32.002-32 0-17.646-14.356-32.002-32.002-32.002zM992.006 131.621c0-19.644-15.981-35.625-35.625-35.625h-45.485c0.705 5.439 1.108 10.975 1.108 16.602v1.423c27.573 7.123 48 32.208 48 61.974 0 35.291-28.708 64-64 64s-64-28.708-64-64c0-29.769 20.427-54.854 48-61.974v-1.423c0-5.664-0.518-11.203-1.457-16.602h-42.92c-19.644 0-35.625 15.981-35.625 35.625v88.753c0 19.644 15.981 35.625 35.625 35.625h120.753c19.644 0 35.625-15.981 35.625-35.625v-88.753z" />
<glyph unicode="&#xe914;" glyph-name="office" data-tags="office" d="M0 760v-144h31.999v-479.999h32.001v479.999h527.999v-357.178c0-25.431 12.763-47.927 32.212-61.452v-61.366h32.001v48.764c3.467-0.495 7.007-0.766 10.609-0.766h249.267c4.053 0 8.030 0.328 11.912 0.941v-48.939h32.001v62.047c19.344 13.771 31.999 36.362 31.999 61.863v356.082h31.999v144.004h-1024zM959.997 259.91c0-24.212-19.699-43.911-43.911-43.911h-249.265c-23.613 0-42.821 19.209-42.821 42.821v197.178h335.997v-196.088zM959.997 487.997h-335.997v127.999h335.997v-127.999zM991.997 648.002h-959.995v79.997h959.995v-79.997zM751.999 423.999h79.999v-32.001h-79.999v32.001zM751.999 583.997h79.999v-32.001h-79.999v32.001z" />
<glyph unicode="&#xe915;" glyph-name="outdoor" data-tags="outdoor" d="M965.949 240.002l-341.947 295.321v280.678h-224.003v-280.678l-341.95-295.321h-58.049v-160.003h1024v160.003h-58.051zM591.999 783.999v-239.997h-159.999v239.997h159.999zM421.95 511.999h180.098l314.943-271.997h-809.986l314.945 271.997zM992 112.001v0h-959.998v95.998h959.998v-95.998zM80 176.004h48v-32.002h-48v32.002zM175.999 176.004h48v-32.002h-48v32.002zM272 176.004h47.998v-32.002h-47.998v32.002zM240.001 304h543.999v-32.002h-543.999v32.002z" />
</font>
</defs>
</svg>
